<svg xmlns="http://www.w3.org/2000/svg" xmlns:xlink="http://www.w3.org/1999/xlink" width="40" height="27" viewBox="0 0 40 27">
  <defs>
    <clipPath id="clip-path">
      <rect id="Rectangle_60" data-name="Rectangle 60" width="40" height="27" rx="13.5" transform="translate(0)" fill="#ffcc61"/>
    </clipPath>
  </defs>
  <g id="Mask_Group_26" data-name="Mask Group 26" transform="translate(0)" clip-path="url(#clip-path)">
    <g id="burger" transform="translate(5.752 0.148)">
      <path id="Path_181" data-name="Path 181" d="M120.791,19.592a11.744,11.744,0,0,1,4.74,1.783,7.344,7.344,0,0,1,2.743,3.136.54.54,0,0,0,.7.285.532.532,0,0,0,.287-.7,8.4,8.4,0,0,0-3.132-3.605,12.83,12.83,0,0,0-5.179-1.953.534.534,0,1,0-.165,1.055Zm0,0" transform="translate(-104.935 -16.179)" fill="#ffcc61"/>
      <path id="Path_182" data-name="Path 182" d="M41.931,53.38a.539.539,0,0,0,1.008-.041.541.541,0,0,0-.185-.586.556.556,0,0,0-.639-.011A.543.543,0,0,0,41.931,53.38Zm0,0" transform="translate(-36.531 -45.965)" fill="#ffcc61"/>
      <path id="Path_183" data-name="Path 183" d="M62.185,37.72a.539.539,0,0,0,1.009-.042.541.541,0,0,0-.182-.583.553.553,0,0,0-.645-.012A.543.543,0,0,0,62.185,37.72Zm0,0" transform="translate(-54.193 -32.292)" fill="#ffcc61"/>
      <path id="Path_184" data-name="Path 184" d="M83.951,53.38a.539.539,0,0,0,1.009-.041.541.541,0,0,0-.185-.586.556.556,0,0,0-.639-.011A.543.543,0,0,0,83.951,53.38Zm0,0" transform="translate(-73.173 -45.965)" fill="#ffcc61"/>
      <path id="Path_185" data-name="Path 185" d="M27.551,16.912a2.705,2.705,0,0,0-1.82-2.546V13.03a2.318,2.318,0,0,0,.488-.247,2.1,2.1,0,0,0,.964-1.769,2.073,2.073,0,0,0-.4-1.228,1.709,1.709,0,0,0,.107-.988,9.958,9.958,0,0,0-4.456-6.3A15.669,15.669,0,0,0,13.776,0a15.669,15.669,0,0,0-8.66,2.5A9.957,9.957,0,0,0,.66,8.8a1.709,1.709,0,0,0,.225,1.215,2.062,2.062,0,0,0-.255,1,2.1,2.1,0,0,0,.964,1.769,2.347,2.347,0,0,0,.226.132v1.45A2.705,2.705,0,0,0,0,16.912v.108a2.682,2.682,0,0,0,.868,1.973,2.09,2.09,0,0,0,.312,2.382V23.3a3.751,3.751,0,0,0,3.762,3.731H22.61A3.751,3.751,0,0,0,26.372,23.3V21.617a2.095,2.095,0,0,0,.478-2.791,2.675,2.675,0,0,0,.7-1.807Zm-1.076,0v.108a1.627,1.627,0,0,1-.7,1.334,1.659,1.659,0,0,1-.946.3H16.485l3.431-3.373h4.913a1.641,1.641,0,0,1,1.646,1.632ZM8.156,15.28l.085.085.552.547L7.638,17.058,5.845,15.28Zm5.081,3.529-3.3-3.274h0l-.257-.255h8.707l-3.6,3.527h0l-.775.769ZM1.718,8.995a8.9,8.9,0,0,1,4-5.611,14.577,14.577,0,0,1,8.057-2.316,14.577,14.577,0,0,1,8.057,2.316,8.906,8.906,0,0,1,4,5.611.672.672,0,0,1-.658.784H2.375a.672.672,0,0,1-.658-.784Zm.028,1.735a1.765,1.765,0,0,0,.63.116h22.8a1.767,1.767,0,0,0,.855-.221,1.027,1.027,0,0,1,.077.389,1.053,1.053,0,0,1-.488.883,1.277,1.277,0,0,1-1.084.148c-.179-.056-.349-.129-.533-.168a2.933,2.933,0,0,0-.609-.061,2.964,2.964,0,0,0-1.891.651,2,2,0,0,1-2.541,0,3.072,3.072,0,0,0-3.782,0,2,2,0,0,1-2.541,0,3.073,3.073,0,0,0-3.782,0,2,2,0,0,1-2.541,0,2.963,2.963,0,0,0-1.891-.651,2.744,2.744,0,0,0-1.048.2A1.279,1.279,0,0,1,2.194,11.9a1.053,1.053,0,0,1-.488-.883,1.02,1.02,0,0,1,.04-.285ZM3,13.17a2.632,2.632,0,0,0,.81-.183,1.868,1.868,0,0,1,.826-.094,1.955,1.955,0,0,1,1.053.446,3.072,3.072,0,0,0,3.782,0,2,2,0,0,1,2.541,0,3.072,3.072,0,0,0,3.782,0,2,2,0,0,1,2.541,0,3.072,3.072,0,0,0,3.782,0,1.912,1.912,0,0,1,1.271-.456,1.755,1.755,0,0,1,.641.116,2.509,2.509,0,0,0,.622.159v1.054H2.9v-1.04l.107,0ZM1.077,16.912A1.641,1.641,0,0,1,2.722,15.28h1.6l2.934,2.91a.542.542,0,0,0,.761,0l1.536-1.523,2,1.986H2.722a1.658,1.658,0,0,1-.814-.214,1.63,1.63,0,0,1-.832-1.418Zm.718,2.646a2.751,2.751,0,0,0,.927.162h9.911l1,.99a.547.547,0,0,0,.759,0L15.4,19.72h9.43a2.759,2.759,0,0,0,.893-.149,1.378,1.378,0,0,0,.178-.07c.018-.009.045-.03.066-.029s.038.04.048.064a1.025,1.025,0,0,1,.092.407A1.112,1.112,0,0,1,25.273,21a1.284,1.284,0,0,1-.833-.045,2.739,2.739,0,0,0-1.048-.2,2.963,2.963,0,0,0-1.891.651,2,2,0,0,1-2.541,0,3.072,3.072,0,0,0-3.782,0,2,2,0,0,1-2.541,0,3.072,3.072,0,0,0-3.782,0,2,2,0,0,1-2.541,0,2.964,2.964,0,0,0-1.892-.651,2.738,2.738,0,0,0-1.048.2A1.278,1.278,0,0,1,2.281,20.9a1.1,1.1,0,0,1-.563-.777,1.044,1.044,0,0,1,0-.3c0-.029.053-.272.08-.262ZM25.3,23.3a2.678,2.678,0,0,1-2.686,2.664H4.942A2.678,2.678,0,0,1,2.256,23.3V22.035A2.349,2.349,0,0,0,3.629,22l.028-.009c.041-.014.083-.029.124-.046a1.678,1.678,0,0,1,.641-.116,1.91,1.91,0,0,1,1.271.456,3.072,3.072,0,0,0,3.783,0,2,2,0,0,1,2.541,0,3.072,3.072,0,0,0,3.782,0,2,2,0,0,1,2.541,0,3.072,3.072,0,0,0,3.782,0,1.91,1.91,0,0,1,1.271-.456,1.79,1.79,0,0,1,.476.06c.147.041.287.1.434.146a2.341,2.341,0,0,0,.993.055V23.3Zm0,0" transform="translate(0 0)" fill="#ffcc61"/>
      <path id="Path_186" data-name="Path 186" d="M94.72,37.72a.539.539,0,0,0,1.009-.041.541.541,0,0,0-.185-.587.554.554,0,0,0-.638-.011.542.542,0,0,0-.186.639Zm0,0" transform="translate(-82.564 -32.292)" fill="#ffcc61"/>
      <path id="Path_187" data-name="Path 187" d="M113.69,56.256a.539.539,0,0,0,1.009-.041.54.54,0,0,0-.185-.587.556.556,0,0,0-.639-.011A.543.543,0,0,0,113.69,56.256Zm0,0" transform="translate(-99.107 -48.476)" fill="#ffcc61"/>
      <path id="Path_188" data-name="Path 188" d="M101.6,16.832a.553.553,0,0,0,.639-.031.54.54,0,0,0,.163-.6.539.539,0,0,0-1.006,0,.544.544,0,0,0,.2.633Zm0,0" transform="translate(-88.395 -13.842)" fill="#ffcc61"/>
    </g>
  </g>
</svg>
