<svg xmlns="http://www.w3.org/2000/svg" xmlns:xlink="http://www.w3.org/1999/xlink" width="39" height="27" viewBox="0 0 39 27">
  <defs>
    <clipPath id="clip-path">
      <rect id="Rectangle_34" data-name="Rectangle 34" width="39" height="27" rx="13.5" transform="translate(32.656 202.619)" fill="#ffcc61"/>
    </clipPath>
  </defs>
  <g id="Mask_Group_8" data-name="Mask Group 8" transform="translate(-32.656 -202.619)" clip-path="url(#clip-path)">
    <g id="burger" transform="translate(38.158 202.765)">
      <path id="Path_43" data-name="Path 43" d="M120.787,19.581a11.629,11.629,0,0,1,4.694,1.765,7.272,7.272,0,0,1,2.716,3.105.535.535,0,0,0,.7.282.527.527,0,0,0,.284-.692,8.322,8.322,0,0,0-3.1-3.57,12.7,12.7,0,0,0-5.128-1.934.528.528,0,1,0-.163,1.044Zm0,0" transform="translate(-105.086 -16.202)" fill="#ffcc61"/>
      <path id="Path_44" data-name="Path 44" d="M41.931,53.373a.533.533,0,0,0,1-.041.536.536,0,0,0-.183-.581.551.551,0,0,0-.632-.011A.538.538,0,0,0,41.931,53.373Zm0,0" transform="translate(-36.584 -46.03)" fill="#ffcc61"/>
      <path id="Path_45" data-name="Path 45" d="M62.185,37.713a.533.533,0,0,0,1-.041.535.535,0,0,0-.18-.577.548.548,0,0,0-.639-.012A.538.538,0,0,0,62.185,37.713Zm0,0" transform="translate(-54.271 -32.338)" fill="#ffcc61"/>
      <path id="Path_46" data-name="Path 46" d="M83.95,53.373a.534.534,0,0,0,1-.041.536.536,0,0,0-.183-.581.551.551,0,0,0-.632-.011A.538.538,0,0,0,83.95,53.373Zm0,0" transform="translate(-73.279 -46.03)" fill="#ffcc61"/>
      <path id="Path_47" data-name="Path 47" d="M27.28,16.746a2.679,2.679,0,0,0-1.8-2.521V12.9a2.3,2.3,0,0,0,.483-.245,2.082,2.082,0,0,0,.955-1.751,2.052,2.052,0,0,0-.4-1.216,1.692,1.692,0,0,0,.106-.978,9.86,9.86,0,0,0-4.412-6.237A15.515,15.515,0,0,0,13.64,0,15.514,15.514,0,0,0,5.065,2.475,9.859,9.859,0,0,0,.653,8.712a1.692,1.692,0,0,0,.222,1.2,2.042,2.042,0,0,0-.252.991,2.082,2.082,0,0,0,.955,1.752,2.324,2.324,0,0,0,.224.131v1.436A2.679,2.679,0,0,0,0,16.746v.107A2.655,2.655,0,0,0,.86,18.807a2.07,2.07,0,0,0,.308,2.358v1.907a3.714,3.714,0,0,0,3.725,3.694H22.387a3.714,3.714,0,0,0,3.725-3.694V21.4a2.074,2.074,0,0,0,.473-2.763,2.649,2.649,0,0,0,.695-1.789Zm-1.066,0v.107a1.611,1.611,0,0,1-.693,1.321,1.643,1.643,0,0,1-.937.295H16.323l3.4-3.339h4.864a1.625,1.625,0,0,1,1.63,1.616ZM8.076,15.13l.085.084.547.542L7.563,16.89,5.788,15.13Zm5.031,3.494L9.838,15.382h0l-.254-.252H18.2l-3.561,3.492h0l-.768.761ZM1.7,8.906A8.818,8.818,0,0,1,5.662,3.35,14.434,14.434,0,0,1,13.64,1.057,14.434,14.434,0,0,1,21.618,3.35,8.819,8.819,0,0,1,25.58,8.906a.666.666,0,0,1-.651.776H2.352A.665.665,0,0,1,1.7,8.906Zm.028,1.718a1.748,1.748,0,0,0,.623.115H24.929a1.749,1.749,0,0,0,.846-.219,1.017,1.017,0,0,1,.076.386,1.043,1.043,0,0,1-.483.874,1.264,1.264,0,0,1-1.073.147c-.178-.056-.345-.128-.528-.166a2.9,2.9,0,0,0-.6-.061,2.935,2.935,0,0,0-1.873.645,1.979,1.979,0,0,1-2.516,0,3.042,3.042,0,0,0-3.745,0,1.979,1.979,0,0,1-2.516,0,3.043,3.043,0,0,0-3.745,0,1.979,1.979,0,0,1-2.516,0A2.934,2.934,0,0,0,4.378,11.7a2.717,2.717,0,0,0-1.038.194,1.266,1.266,0,0,1-1.167-.113,1.043,1.043,0,0,1-.483-.874,1.01,1.01,0,0,1,.039-.282Zm1.245,2.417a2.606,2.606,0,0,0,.8-.182,1.85,1.85,0,0,1,.818-.093,1.935,1.935,0,0,1,1.043.442,3.042,3.042,0,0,0,3.745,0,1.98,1.98,0,0,1,2.516,0,3.042,3.042,0,0,0,3.745,0,1.98,1.98,0,0,1,2.516,0,3.042,3.042,0,0,0,3.745,0,1.893,1.893,0,0,1,1.258-.451,1.738,1.738,0,0,1,.634.115,2.485,2.485,0,0,0,.616.157v1.044H2.868V13.044l.106,0Zm-1.908,3.7A1.625,1.625,0,0,1,2.7,15.13H4.281l2.905,2.881a.536.536,0,0,0,.753,0L9.461,16.5l1.983,1.966H2.7a1.641,1.641,0,0,1-.806-.212,1.614,1.614,0,0,1-.824-1.4Zm.711,2.62a2.724,2.724,0,0,0,.918.16h9.814l.988.98a.542.542,0,0,0,.752,0l1-.982h9.337a2.732,2.732,0,0,0,.885-.148,1.364,1.364,0,0,0,.176-.07c.018-.009.044-.03.066-.028s.037.039.048.063a1.015,1.015,0,0,1,.091.4,1.1,1.1,0,0,1-.826,1.051,1.272,1.272,0,0,1-.825-.045,2.712,2.712,0,0,0-1.037-.194,2.933,2.933,0,0,0-1.873.645,1.979,1.979,0,0,1-2.516,0,3.042,3.042,0,0,0-3.745,0,1.979,1.979,0,0,1-2.516,0,3.042,3.042,0,0,0-3.745,0,1.979,1.979,0,0,1-2.516,0,2.935,2.935,0,0,0-1.873-.645,2.711,2.711,0,0,0-1.038.194,1.266,1.266,0,0,1-1.081-.061,1.084,1.084,0,0,1-.557-.77,1.034,1.034,0,0,1,0-.3c0-.028.053-.269.079-.26Zm23.27,3.706a2.652,2.652,0,0,1-2.66,2.637H4.893a2.652,2.652,0,0,1-2.66-2.637V21.819a2.326,2.326,0,0,0,1.36-.034l.027-.009c.041-.014.082-.029.122-.045a1.661,1.661,0,0,1,.635-.115,1.891,1.891,0,0,1,1.258.451,3.042,3.042,0,0,0,3.745,0,1.98,1.98,0,0,1,2.516,0,3.042,3.042,0,0,0,3.745,0,1.979,1.979,0,0,1,2.516,0,3.042,3.042,0,0,0,3.745,0,1.892,1.892,0,0,1,1.258-.451,1.773,1.773,0,0,1,.471.06c.146.04.284.1.43.145a2.318,2.318,0,0,0,.984.055v1.2Zm0,0" transform="translate(0 0)" fill="#ffcc61"/>
      <path id="Path_48" data-name="Path 48" d="M94.72,37.713a.534.534,0,0,0,1-.041.536.536,0,0,0-.183-.581.548.548,0,0,0-.632-.011.537.537,0,0,0-.184.633Zm0,0" transform="translate(-82.683 -32.338)" fill="#ffcc61"/>
      <path id="Path_49" data-name="Path 49" d="M113.69,56.249a.534.534,0,0,0,1-.041.535.535,0,0,0-.183-.581.551.551,0,0,0-.632-.011A.538.538,0,0,0,113.69,56.249Zm0,0" transform="translate(-99.25 -48.545)" fill="#ffcc61"/>
      <path id="Path_50" data-name="Path 50" d="M101.6,16.822a.548.548,0,0,0,.633-.03.535.535,0,0,0,.162-.595.534.534,0,0,0-1,0,.539.539,0,0,0,.2.627Zm0,0" transform="translate(-88.522 -13.862)" fill="#ffcc61"/>
    </g>
  </g>
</svg>
