<svg xmlns="http://www.w3.org/2000/svg" xmlns:xlink="http://www.w3.org/1999/xlink" width="52.377" height="66.959" viewBox="0 0 52.377 66.959">
  <defs>
    <filter id="Rectangle_36" x="5" y="0" width="42" height="47" filterUnits="userSpaceOnUse">
      <feOffset dy="3" input="SourceAlpha"/>
      <feGaussianBlur stdDeviation="3" result="blur"/>
      <feFlood flood-opacity="0.161"/>
      <feComposite operator="in" in2="blur"/>
      <feComposite in="SourceGraphic"/>
    </filter>
    <filter id="Union_1" x="0" y="15.312" width="52.377" height="51.647" filterUnits="userSpaceOnUse">
      <feOffset dy="3" input="SourceAlpha"/>
      <feGaussianBlur stdDeviation="3" result="blur-2"/>
      <feFlood flood-opacity="0.161"/>
      <feComposite operator="in" in2="blur-2"/>
      <feComposite in="SourceGraphic"/>
    </filter>
  </defs>
  <g id="Group_46" data-name="Group 46" transform="translate(-286 -245)">
    <g transform="matrix(1, 0, 0, 1, 286, 245)" filter="url(#Rectangle_36)">
      <rect id="Rectangle_36-2" data-name="Rectangle 36" width="24" height="29" transform="translate(14 6)" fill="#707070" opacity="0.64"/>
    </g>
    <g id="heart" transform="translate(295 266.312)">
      <g transform="matrix(1, 0, 0, 1, -9, -21.31)" filter="url(#Union_1)">
        <path id="Union_1-2" data-name="Union 1" d="M0,10.709C0-1.535,13.84-3.053,17.188,5c3.37-8.092,17.188-6.463,17.188,5.714,0,6.223-4.382,14.5-17.188,22.938C4.384,25.209,0,16.932,0,10.709ZM19.68,6.244l.725-.952A9.985,9.985,0,0,0,19.68,6.244Z" transform="translate(9 21.31)" fill="#707070"/>
      </g>
    </g>
  </g>
</svg>
