<svg xmlns="http://www.w3.org/2000/svg" width="24" height="22" viewBox="0 0 24 22">
  <defs>
    <style>
      .cls-1 {
        fill: #5b5b5b;
        opacity: 0.9;
      }
    </style>
  </defs>
  <path id="iconmonstr-control-panel-5" class="cls-1" d="M12,9a1,1,0,1,1-1,1A1,1,0,0,1,12,9Zm0-2a3,3,0,1,0,3,3A3,3,0,0,0,12,7ZM3,11a3,3,0,1,0,3,3A3,3,0,0,0,3,11Zm18,0a3,3,0,1,0,3,3A3,3,0,0,0,21,11ZM12,5a4.988,4.988,0,0,1,1,.1V2a1,1,0,0,0-2,0V5.1A4.988,4.988,0,0,1,12,5Zm9,4a4.988,4.988,0,0,1,1,.1V2a1,1,0,0,0-2,0V9.1A4.988,4.988,0,0,1,21,9Zm0,10a4.988,4.988,0,0,1-1-.1V22a1,1,0,0,0,2,0V18.9A4.988,4.988,0,0,1,21,19ZM3,9a4.988,4.988,0,0,1,1,.1V2A1,1,0,0,0,2,2V9.1A4.988,4.988,0,0,1,3,9Zm9,6a4.988,4.988,0,0,1-1-.1V22a1,1,0,0,0,2,0V14.9A4.988,4.988,0,0,1,12,15ZM3,19a4.988,4.988,0,0,1-1-.1V22a1,1,0,0,0,2,0V18.9A4.988,4.988,0,0,1,3,19Z" transform="translate(0 -1)"/>
</svg>
