<?xml version="1.0" encoding="UTF-8" standalone="no"?>
<svg
   xmlns:dc="http://purl.org/dc/elements/1.1/"
   xmlns:cc="http://creativecommons.org/ns#"
   xmlns:rdf="http://www.w3.org/1999/02/22-rdf-syntax-ns#"
   xmlns:svg="http://www.w3.org/2000/svg"
   xmlns="http://www.w3.org/2000/svg"
   xmlns:sodipodi="http://sodipodi.sourceforge.net/DTD/sodipodi-0.dtd"
   xmlns:inkscape="http://www.inkscape.org/namespaces/inkscape"
   width="36"
   height="36"
   viewBox="0 0 36 36"
   version="1.1"
   id="svg7"
   sodipodi:docname="nav-option-1.svg"
   inkscape:version="0.92.3 (2405546, 2018-03-11)">
  <metadata
     id="metadata11">
    <rdf:RDF>
      <cc:Work
         rdf:about="">
        <dc:format>image/svg+xml</dc:format>
        <dc:type
           rdf:resource="http://purl.org/dc/dcmitype/StillImage" />
      </cc:Work>
    </rdf:RDF>
  </metadata>
  <sodipodi:namedview
     pagecolor="#ffffff"
     bordercolor="#666666"
     borderopacity="1"
     objecttolerance="10"
     gridtolerance="10"
     guidetolerance="10"
     inkscape:pageopacity="0"
     inkscape:pageshadow="2"
     inkscape:window-width="1600"
     inkscape:window-height="845"
     id="namedview9"
     showgrid="false"
     inkscape:zoom="6.5555556"
     inkscape:cx="18"
     inkscape:cy="18"
     inkscape:window-x="1920"
     inkscape:window-y="0"
     inkscape:window-maximized="1"
     inkscape:current-layer="svg7" />
  <defs
     id="defs4">
    <style
       id="style2">
      .cls-1 {
        fill: #49d18f;
        opacity: 0.9;
      }
    </style>
  </defs>
  <path
     id="iconmonstr-map-8"
     class="cls-1"
     d="M18,0C13.278,0,9,3.83,9,8.553,9,15.576,16.174,16.319,18,27c1.826-10.681,9-11.424,9-18.447C27,3.829,22.723,0,18,0Zm0,12a3,3,0,1,1,3-3A3,3,0,0,1,18,12ZM36,36,25.939,32.36,18,36,9.628,32.36,0,36,6,22.5l5.94-2.376a17.065,17.065,0,0,1,1.591,2.594L8.247,24.833l-2.588,5.82,4.008-1.515,2.259-4.03-.952,4.566,6.284,2.684L18,29.325l.7,3.036,6.225-2.835L24,24.977l2.358,4.344,4.1,1.483-2.608-5.967-5.372-2.123a16.8,16.8,0,0,1,1.593-2.6L30.1,22.5Z"
     style="fill:#5b5b5b;fill-opacity:1" />
</svg>
