<?xml version="1.0" encoding="utf-8"?>
<!-- Generator: Adobe Illustrator 23.1.0, SVG Export Plug-In . SVG Version: 6.00 Build 0)  -->
<svg version="1.1" id="Layer_1" xmlns="http://www.w3.org/2000/svg" xmlns:xlink="http://www.w3.org/1999/xlink" x="0px" y="0px"
	 viewBox="0 0 36 36" style="enable-background:new 0 0 36 36;" xml:space="preserve">
<style type="text/css">
	.st0{opacity:0.9;fill:#5B5B5B;enable-background:new    ;}
</style>
<path id="iconmonstr-map-8" class="st0" d="M18,0c-4.7,0-9,3.8-9,8.6c0,7,7.2,7.8,9,18.4c1.8-10.7,9-11.4,9-18.4C27,3.8,22.7,0,18,0
	z M18,12c-1.7,0-3-1.3-3-3s1.3-3,3-3s3,1.3,3,3S19.7,12,18,12z M36,36l-10.1-3.6L18,36l-8.4-3.6L0,36l6-13.5l5.9-2.4
	c0.6,0.8,1.1,1.7,1.6,2.6l-5.3,2.1l-2.6,5.8l4-1.5l2.3-4l-1,4.6l6.3,2.7l0.7-3l0.7,3l6.2-2.8L24,25l2.4,4.3l4.1,1.5l-2.6-6l-5.4-2.1
	c0.5-0.9,1-1.8,1.6-2.6l6,2.4L36,36z"/>
</svg>
