<?xml version="1.0" encoding="utf-8"?>
<!-- Generator: Adobe Illustrator 23.1.0, SVG Export Plug-In . SVG Version: 6.00 Build 0)  -->
<svg version="1.1" id="Layer_1" xmlns="http://www.w3.org/2000/svg" xmlns:xlink="http://www.w3.org/1999/xlink" x="0px" y="0px"
	 viewBox="0 0 36 36" style="enable-background:new 0 0 36 36;" xml:space="preserve">
<style type="text/css">
	.st0{opacity:0.9;fill:#49D18F;enable-background:new    ;}
</style>
<path id="iconmonstr-favorite-2" class="st0" d="M18,13.5c0.4-1.8,2.3-10.2,8.1-10.2c3.3,0,6.9,2.5,6.9,8.2c0,6.4-5.4,13.9-15,20.7
	C8.4,25.3,3,17.9,3,11.5c0-5.7,3.6-8.2,6.9-8.2C15.8,3.3,17.6,11.7,18,13.5z M0,11.5C0,18.1,4.6,27,18,36c13.4-9,18-17.9,18-24.5
	c0-13-14.5-14.8-18-6.1C14.5-3.3,0-1.6,0,11.5z"/>
</svg>
