<svg xmlns="http://www.w3.org/2000/svg" xmlns:xlink="http://www.w3.org/1999/xlink" width="58" height="27" viewBox="0 0 58 27">
  <defs>
    <clipPath id="clip-path">
      <rect id="Rectangle_33" data-name="Rectangle 33" width="58" height="27" rx="13.5" transform="translate(32.431 99.39)" fill="#707070"/>
    </clipPath>
  </defs>
  <g id="Mask_Group_9" data-name="Mask Group 9" transform="translate(-32.431 -99.39)" clip-path="url(#clip-path)">
    <g id="walk" transform="translate(44.076 99)">
      <path id="Path_51" data-name="Path 51" d="M.513,32.853l2.377.573a.676.676,0,0,0,.157.019H16.615a.67.67,0,0,0,.67-.67V14.746a.67.67,0,1,0-1.339,0V25.208H15.3a8.9,8.9,0,0,1-3.748-.833l-.57-9.669a.67.67,0,1,0-1.337.079l.565,9.582L5.583,26.28a2.111,2.111,0,0,1-.4.121H5.176a2.1,2.1,0,0,1-.4.038H3.744a3.478,3.478,0,0,0-3.277,2.32L.038,29.978A.669.669,0,0,0,0,30.2H0v2a.669.669,0,0,0,.513.651Zm2.614-.748-1.787-.43v-.609l1.489.388A.666.666,0,0,0,3,31.475H15.946v.631Zm-1.4-2.9a2.138,2.138,0,0,1,2.014-1.426h0l1.026,0h0c.1,0,.192,0,.288-.013l1.043,1.043a.67.67,0,1,0,.947-.947l-.524-.525.836-.345,1.051,1.051a.669.669,0,0,0,.947-.947l-.657-.657.629-.26,1.039,1.039a.669.669,0,0,0,.947-.947l-.645-.645.208-.086A10.242,10.242,0,0,0,15.3,26.547h.643v3.589H3.083l-1.54-.4Zm0,0" transform="translate(0 -11.465)" fill="#707070"/>
      <path id="Path_52" data-name="Path 52" d="M95.833,21.736a.671.671,0,0,0,.079.211h0l1,1.734a.669.669,0,0,0,.58.335.677.677,0,0,0,.19-.027l2.345-.693a.664.664,0,0,0,.145-.062l10.823-6.249a1.741,1.741,0,0,0,.638-2.379l-.449-.777-2.436-4.219-3.351-9a.67.67,0,0,0-1.255.467L107.315,9.6l-.646.373a8.894,8.894,0,0,1-3.586,1.145L99.547,3.186a.67.67,0,1,0-1.223.545l3.564,8-3.1,4.033a2.131,2.131,0,0,1-.285.3l-.008.007a2.1,2.1,0,0,1-.327.232l-.889.512a3.478,3.478,0,0,0-1.682,3.65Zm14.68-6.154a.4.4,0,0,1-.188.245L99.572,22.035l-1.763.521-.3-.528,1.483-.409a.689.689,0,0,0,.157-.066l11.214-6.475.114.2a.4.4,0,0,1,.04.305ZM97.945,17.976l.889-.512c.085-.049.167-.1.247-.157l1.424.382a.669.669,0,1,0,.347-1.293l-.717-.192.552-.717,1.435.384a.669.669,0,1,0,.347-1.293l-.9-.241.415-.539,1.419.38a.67.67,0,0,0,.347-1.294l-.882-.236.137-.178a10.24,10.24,0,0,0,4.331-1.337l.557-.321,1.794,3.108-11.14,6.432-1.534.423-.1-.555a2.137,2.137,0,0,1,1.033-2.243Zm0,0" transform="translate(-77.587 -0.178)" fill="#707070"/>
      <path id="Path_53" data-name="Path 53" d="M7.275,131.993H.669a.67.67,0,1,0,0,1.339H7.275a.67.67,0,1,0,0-1.339Zm0,0" transform="translate(0 -107.227)" fill="#707070"/>
      <path id="Path_54" data-name="Path 54" d="M53.765,131.993a.67.67,0,1,0,.473.2A.675.675,0,0,0,53.765,131.993Zm0,0" transform="translate(-43.12 -107.227)" fill="#707070"/>
      <path id="Path_55" data-name="Path 55" d="M147.426,123.775H140.82a.67.67,0,1,0,0,1.339h6.606a.67.67,0,1,0,0-1.339Zm0,0" transform="translate(-113.819 -100.553)" fill="#707070"/>
      <path id="Path_56" data-name="Path 56" d="M94.937,138.051H88.331a.67.67,0,1,0,0,1.339h6.606a.67.67,0,1,0,0-1.339Zm0,0" transform="translate(-71.192 -112.147)" fill="#707070"/>
    </g>
  </g>
</svg>
