<svg xmlns="http://www.w3.org/2000/svg" width="36" height="36" viewBox="0 0 36 36">
  <title>Ulubione miejsca</title>
  <defs>
    <style>
      .cls-1 {
        fill: #5b5b5b;
        opacity: 0.9;
      }
    </style>
  </defs>
  <path id="iconmonstr-favorite-2" class="cls-1" d="M18,14.466c.351-1.833,2.32-10.193,8.073-10.193C29.4,4.273,33,6.811,33,12.459c0,6.393-5.441,13.86-15,20.666C8.441,26.319,3,18.853,3,12.459c0-5.7,3.554-8.19,6.866-8.19C15.75,4.269,17.583,12.657,18,14.466ZM0,12.459C0,19.116,4.59,27.974,18,37c13.41-9.026,18-17.884,18-24.541C36-.569,21.528-2.314,18,6.344,14.493-2.266,0-.643,0,12.459Z" transform="translate(0 -1)"/>
</svg>
