<svg xmlns="http://www.w3.org/2000/svg" width="36" height="36" viewBox="0 0 36 36">
  <title>Mapa miejsc</title>
  <defs>
    <style>
      .cls-1 {
        fill: #5b5b5b;
        opacity: 0.9;
      }
    </style>
  </defs>
  <path class="cls-1" d="M18,0C13.278,0,9,3.83,9,8.553,9,15.576,16.174,16.319,18,27c1.826-10.681,9-11.424,9-18.447C27,3.829,22.723,0,18,0Zm0,12a3,3,0,1,1,3-3A3,3,0,0,1,18,12ZM36,36,25.939,32.36,18,36,9.628,32.36,0,36,6,22.5l5.94-2.376a17.065,17.065,0,0,1,1.591,2.594L8.247,24.833l-2.588,5.82,4.008-1.515,2.259-4.03-.952,4.566,6.284,2.684L18,29.325l.7,3.036,6.225-2.835L24,24.977l2.358,4.344,4.1,1.483-2.608-5.967-5.372-2.123a16.8,16.8,0,0,1,1.593-2.6L30.1,22.5Z"/>
</svg>
